<svg data-v-0dd9719b="" version="1.0" xmlns="http://www.w3.org/2000/svg" xmlns:xlink="http://www.w3.org/1999/xlink" width="100%" height="100%" viewBox="0 0 340.000000 250.000000" preserveAspectRatio="xMidYMid meet" color-interpolation-filters="sRGB" style="margin: auto;"> <rect data-v-0dd9719b="" x="0" y="0" width="100%" height="100%" fill="#ffffff" fill-opacity="1" class="background"></rect> <rect data-v-0dd9719b="" x="0" y="0" width="100%" height="100%" fill="url(#watermark)" fill-opacity="1" class="watermarklayer"></rect> <g data-v-0dd9719b="" fill="#333333" class="iconlinesvg-g iconlinesvg" transform="translate(72.41011719405651,106.36724662780762)"><g class="tp-name"><g transform="translate(0, 2.932055190615584)"><g data-gra="path-name" fill="#333333" transform="scale(1)"><path d="M16.90-31.05L29.32 0L26.07 0Q25.51 0 25.16-0.28Q24.81-0.56 24.64-1.00L24.64-1.00L21.74-8.50L7.80-8.50L4.90-1.00Q4.75-0.61 4.38-0.30Q4.01 0 3.47 0L3.47 0L0.22 0L12.63-31.05L16.90-31.05ZM13.85-24.14L8.97-11.53L20.57-11.53L15.69-24.16Q15.21-25.33 14.76-27.09L14.76-27.09Q14.52-26.20 14.29-25.45Q14.06-24.71 13.85-24.14L13.85-24.14Z" transform="translate(-0.21671081146159402, 31.054659282446423)"></path></g></g><g transform="translate(33, 2.932055190615584)"><g data-gra="path-name" fill="#333333" transform="scale(1)"><path d="M9.34 0L0.39-21.95L3.55-21.95Q4.01-21.95 4.31-21.71Q4.62-21.48 4.75-21.15L4.75-21.15L10.32-7.02Q10.62-6.24 10.79-5.46Q10.97-4.68 11.12-3.92L11.12-3.92Q11.29-4.68 11.49-5.46Q11.68-6.24 11.98-7.02L11.98-7.02L17.62-21.15Q17.75-21.50 18.04-21.73Q18.33-21.95 18.77-21.95L18.77-21.95L21.78-21.95L12.83 0L9.34 0Z" transform="translate(-0.3900794606308693, 31.054659282446423)"></path></g></g><g transform="translate(57, 0)"><g><g class="imagesvg"><g><rect fill="#333333" fill-opacity="0" stroke-width="2" x="0" y="0" width="35.40782143995964" height="37.26550696201614" class="image-rect"></rect> <svg x="0" y="0" width="35.40782143995964" height="37.26550696201614" filtersec="colorsb4685483066" class="image-svg-svg primary" style="overflow: visible;"><svg xmlns="http://www.w3.org/2000/svg" viewBox="0 0 22.489999771118164 23.670000076293945"><title>资源 25</title><path fill="#38b137" d="M13.36 4.38L11.24 0 0 23.67h4.22l9.14-19.29z"></path><path fill="#333333" d="M18.27 23.67h4.22l-5.93-12.48h-4.22l5.93 12.48z"></path></svg></svg> <!----></g></g></g></g><g transform="translate(95, 2.932055190615584)"><g data-gra="path-name" fill="#333333" transform="scale(1)"><path d="M3.77-31.05L22.91-31.05L22.91-27.63L8.00-27.63L8.00-16.77L20.74-16.77L20.74-13.35L8.00-13.35L8.00 0L3.77 0L3.77-31.05Z" transform="translate(-3.770768119431736, 31.054659282446423)"></path></g></g><g transform="translate(118, 2.932055190615584)"><g data-gra="path-name" fill="#333333" transform="scale(1)"><path d="M7.02 0L3.16 0L3.16-21.95L5.37-21.95Q6.00-21.95 6.24-21.71Q6.48-21.48 6.57-20.89L6.57-20.89L6.83-17.47Q7.95-19.76 9.61-21.05Q11.27-22.34 13.50-22.34L13.50-22.34Q14.41-22.34 15.15-22.14Q15.88-21.93 16.51-21.56L16.51-21.56L16.01-18.68Q15.86-18.14 15.34-18.14L15.34-18.14Q15.04-18.14 14.41-18.34Q13.78-18.55 12.66-18.55L12.66-18.55Q10.64-18.55 9.29-17.38Q7.93-16.21 7.02-13.98L7.02-13.98L7.02 0Z" transform="translate(-3.163977847339272, 31.054659282446423)"></path></g></g><g transform="translate(135, 2.932055190615584)"><g data-gra="path-name" fill="#333333" transform="scale(1)"><path d="M12.05-22.30L12.05-22.30Q14.45-22.30 16.39-21.50Q18.33-20.70 19.69-19.22Q21.04-17.75 21.77-15.66Q22.49-13.57 22.49-10.99L22.49-10.99Q22.49-8.39 21.77-6.31Q21.04-4.23 19.69-2.75Q18.33-1.28 16.39-0.49Q14.45 0.30 12.05 0.30L12.05 0.30Q9.64 0.30 7.70-0.49Q5.76-1.28 4.40-2.75Q3.03-4.23 2.30-6.31Q1.56-8.39 1.56-10.99L1.56-10.99Q1.56-13.57 2.30-15.66Q3.03-17.75 4.40-19.22Q5.76-20.70 7.70-21.50Q9.64-22.30 12.05-22.30ZM12.05-2.71L12.05-2.71Q15.30-2.71 16.90-4.89Q18.51-7.06 18.51-10.97L18.51-10.97Q18.51-14.89 16.90-17.08Q15.30-19.27 12.05-19.27L12.05-19.27Q10.40-19.27 9.19-18.70Q7.97-18.14 7.16-17.08Q6.35-16.01 5.95-14.47Q5.55-12.92 5.55-10.97L5.55-10.97Q5.55-9.02 5.95-7.48Q6.35-5.94 7.16-4.89Q7.97-3.84 9.19-3.27Q10.40-2.71 12.05-2.71Z" transform="translate(-1.5603178425234772, 31.054659282446423)"></path></g></g><g transform="translate(159, 2.932055190615584)"><g data-gra="path-name" fill="#333333" transform="scale(1)"><path d="M7.02 0L3.16 0L3.16-21.95L5.46-21.95Q6.28-21.95 6.50-21.15L6.50-21.15L6.80-18.77Q8.24-20.35 10.00-21.32Q11.77-22.30 14.09-22.30L14.09-22.30Q15.88-22.30 17.26-21.70Q18.64-21.11 19.56-20.01Q20.48-18.92 20.96-17.38Q21.43-15.84 21.43-13.98L21.43-13.98L21.43 0L17.58 0L17.58-13.98Q17.58-16.47 16.44-17.85Q15.30-19.22 12.96-19.22L12.96-19.22Q11.25-19.22 9.76-18.40Q8.28-17.58 7.02-16.17L7.02-16.17L7.02 0Z" transform="translate(-3.1639778473392735, 31.054659282446423)"></path></g></g><g transform="translate(181, 2.932055190615584)"><g data-gra="path-name" fill="#333333" transform="scale(1)"><path d="M9.82 0.35L9.82 0.35Q7.22 0.35 5.82-1.11Q4.42-2.56 4.42-5.29L4.42-5.29L4.42-18.72L1.78-18.72Q1.43-18.72 1.19-18.93Q0.95-19.14 0.95-19.57L0.95-19.57L0.95-21.11L4.55-21.56L5.44-28.35Q5.48-28.67 5.72-28.88Q5.96-29.08 6.33-29.08L6.33-29.08L8.28-29.08L8.28-21.52L14.56-21.52L14.56-18.72L8.28-18.72L8.28-5.55Q8.28-4.16 8.95-3.49Q9.62-2.82 10.68-2.82L10.68-2.82Q11.29-2.82 11.73-2.98Q12.18-3.14 12.50-3.34Q12.83-3.53 13.06-3.69Q13.28-3.86 13.46-3.86L13.46-3.86Q13.76-3.86 14.00-3.49L14.00-3.49L15.13-1.65Q14.13-0.72 12.72-0.18Q11.31 0.35 9.82 0.35Z" transform="translate(-0.9535275704310137, 31.054659282446423)"></path></g></g></g> <!----></g><defs v-gra="od"></defs></svg>